<?xml version="1.0" encoding="UTF-8" standalone="no" ?>
<!DOCTYPE svg PUBLIC "-//W3C//DTD SVG 1.1//EN" "http://www.w3.org/Graphics/SVG/1.1/DTD/svg11.dtd">
<svg xmlns="http://www.w3.org/2000/svg" xmlns:xlink="http://www.w3.org/1999/xlink" version="1.1" width="500" height="500" viewBox="0 0 500 500" xml:space="preserve">
<!-- Created with SVG Stack Editor - https://svgstack.com -->
<defs>
</defs>
<rect x="0" y="0" width="100%" height="100%" fill="transparent"></rect>
<g transform="matrix(0.53 0 0 0.53 250 250)"  >
<g style=""   >
		<g transform="matrix(1 0 0 1 0 0)" id="path_0"  >
<path style="stroke: none; stroke-width: 1; stroke-dasharray: none; stroke-linecap: butt; stroke-dashoffset: 0; stroke-linejoin: miter; stroke-miterlimit: 4; fill: rgb(14,28,45); fill-rule: nonzero; opacity: 1;"  transform=" translate(-512.04, -506.27)" d="M 72.4678 91.7116 C 89.7979 91.1044 107.299 91.5558 124.649 91.5508 C 138.021 91.5469 176.574 90.0326 186.727 93.2967 C 196.195 96.3407 202.161 104.056 206.706 112.457 C 214.421 112.538 222.953 114.295 229.564 118.425 C 235.092 121.878 239.341 127.037 242.007 132.961 C 246.093 142.044 246.859 152.964 248.412 162.743 C 250.596 176.492 252.541 190.547 255.777 204.087 L 723.501 204.056 L 865.277 203.886 L 909.134 203.78 C 918.144 203.762 927.411 203.281 936.372 204.27 C 947.99 205.551 957.921 210.056 966.601 217.923 Q 967.593 218.826 968.538 219.776 Q 969.484 220.726 970.382 221.722 Q 971.28 222.718 972.128 223.757 Q 972.976 224.795 973.771 225.875 Q 974.567 226.954 975.308 228.071 Q 976.05 229.188 976.735 230.341 Q 977.421 231.493 978.049 232.678 Q 978.677 233.862 979.245 235.077 Q 979.814 236.291 980.322 237.532 Q 980.831 238.772 981.277 240.037 Q 981.724 241.301 982.108 242.586 Q 982.491 243.87 982.811 245.172 Q 983.131 246.474 983.387 247.791 Q 983.642 249.107 983.833 250.434 Q 984.023 251.762 984.148 253.096 Q 984.272 254.431 984.331 255.771 C 985.066 275.502 971.748 315.997 966.616 336.766 L 922.247 514.049 Q 913.491 549.552 905.161 585.158 C 902.458 596.588 900.522 608.529 896.969 619.706 C 894.467 627.576 890.537 634.158 884.85 640.153 C 877.244 648.172 866.742 654.385 855.739 656.093 C 841.224 658.346 820.24 657.126 805.095 657.128 L 709.343 657.094 L 468.336 656.826 C 423.049 656.782 377.639 656.105 332.366 657.084 C 333.234 667.726 335.838 678.127 337.187 688.703 C 338.32 697.595 338.111 706.48 337.977 715.418 L 690.909 715.476 L 810.083 715.469 C 831.884 715.467 853.935 716.176 875.701 715.154 C 890.209 714.735 905.815 714.836 917.032 725.466 Q 917.648 726.044 918.234 726.652 Q 918.82 727.261 919.375 727.898 Q 919.929 728.535 920.451 729.2 Q 920.972 729.865 921.459 730.555 Q 921.946 731.245 922.397 731.959 Q 922.849 732.673 923.264 733.409 Q 923.678 734.145 924.055 734.901 Q 924.432 735.657 924.77 736.432 Q 925.107 737.206 925.406 737.996 Q 925.704 738.786 925.962 739.591 Q 926.219 740.395 926.436 741.212 Q 926.653 742.028 926.828 742.855 Q 927.003 743.681 927.135 744.515 Q 927.268 745.35 927.359 746.19 Q 927.449 747.029 927.497 747.873 Q 927.544 748.716 927.549 749.561 C 927.657 758.456 924.207 767.546 917.89 773.862 C 913.94 777.811 908.458 781.333 903.016 782.711 C 889.195 786.211 873.044 784.158 858.838 784.123 L 794.588 784.167 Q 797.481 786.998 800.229 789.97 C 814.738 805.814 822.835 826.101 821.778 847.662 Q 821.679 849.54 821.488 851.41 Q 821.298 853.28 821.015 855.139 Q 820.733 856.998 820.36 858.84 Q 819.986 860.683 819.523 862.505 Q 819.06 864.327 818.508 866.124 Q 817.956 867.922 817.317 869.69 Q 816.678 871.458 815.952 873.192 Q 815.227 874.927 814.417 876.623 Q 813.608 878.32 812.716 879.975 Q 811.824 881.63 810.852 883.24 Q 809.88 884.849 808.83 886.409 Q 807.781 887.969 806.656 889.475 Q 805.531 890.981 804.333 892.431 Q 803.136 893.88 801.869 895.269 Q 800.602 896.658 799.268 897.983 Q 797.934 899.308 796.537 900.566 C 780.383 915.131 759.591 921.627 738.019 920.489 C 718.698 919.47 699.335 909.304 686.523 894.953 C 673.391 880.246 667.091 860.065 668.355 840.506 C 669.8 818.136 681.368 800.42 697.878 785.998 C 656.272 785.088 614.522 785.82 572.9 785.778 C 531.945 785.738 490.941 784.906 449.991 785.607 Q 454.897 790.134 459.575 794.896 C 473.133 808.941 480.031 826.787 479.655 846.289 C 479.275 866.009 470.836 885.821 456.555 899.497 C 440.888 914.501 420.59 921.865 399.003 921.313 Q 398.035 921.287 397.068 921.238 Q 396.101 921.188 395.135 921.115 Q 394.17 921.041 393.207 920.944 Q 392.243 920.846 391.283 920.725 Q 390.322 920.603 389.365 920.458 Q 388.407 920.313 387.454 920.144 Q 386.5 919.975 385.551 919.783 Q 384.602 919.59 383.659 919.374 Q 382.715 919.158 381.776 918.919 Q 380.838 918.679 379.906 918.417 Q 378.974 918.154 378.049 917.869 Q 377.124 917.583 376.206 917.275 Q 375.288 916.966 374.378 916.635 Q 373.468 916.304 372.567 915.95 Q 371.665 915.597 370.773 915.221 Q 369.881 914.845 368.998 914.447 Q 368.115 914.049 367.242 913.629 Q 366.37 913.21 365.508 912.768 Q 364.646 912.327 363.795 911.865 Q 362.945 911.402 362.106 910.919 Q 361.267 910.435 360.44 909.931 Q 359.613 909.427 358.799 908.903 Q 357.985 908.378 357.185 907.834 Q 356.384 907.289 355.597 906.725 Q 354.81 906.161 354.037 905.578 Q 353.265 904.994 352.507 904.391 Q 351.749 903.789 351.006 903.168 Q 350.263 902.547 349.536 901.907 Q 348.809 901.268 348.098 900.61 Q 347.387 899.953 346.692 899.278 Q 345.997 898.604 345.32 897.912 Q 344.642 897.22 343.982 896.512 C 329.919 881.69 323.313 862.695 323.988 842.359 C 324.8 817.89 335.514 801.682 352.936 785.489 Q 333.616 785.374 314.297 785.475 C 290.17 785.582 267.663 786.763 249.152 768.555 Q 248.042 767.478 246.986 766.348 Q 245.931 765.218 244.933 764.037 Q 243.935 762.856 242.997 761.627 Q 242.058 760.397 241.182 759.123 Q 240.306 757.849 239.494 756.533 Q 238.682 755.217 237.936 753.863 Q 237.19 752.508 236.512 751.118 Q 235.834 749.728 235.226 748.306 Q 234.618 746.885 234.081 745.434 Q 233.544 743.984 233.08 742.509 Q 232.616 741.034 232.225 739.538 Q 231.834 738.042 231.518 736.528 Q 231.202 735.014 230.961 733.487 Q 230.721 731.959 230.556 730.422 Q 230.391 728.884 230.303 727.34 Q 230.215 725.796 230.203 724.25 C 230.112 707.935 235.866 693.29 247.353 681.662 C 266.822 661.955 288.088 663.236 313.767 663.121 L 259.427 341.568 L 237.094 208.524 C 233.889 189.521 231.411 170.255 227.632 151.369 C 226.801 147.218 225.94 142.639 223.653 139.005 C 220.252 133.6 214.631 132.575 208.865 131.287 C 207.952 136.594 205.704 142.045 202.605 146.453 C 197.295 154.005 189.844 158.06 180.845 159.566 C 168.31 161.663 145.585 160.478 132.101 160.477 L 96.794 160.457 C 86.766 160.444 76.4467 160.734 66.5182 159.131 C 61.9518 158.394 57.7253 156.443 53.9809 153.749 Q 53.2813 153.238 52.6081 152.694 Q 51.9348 152.149 51.2895 151.571 Q 50.6442 150.994 50.0284 150.385 Q 49.4127 149.776 48.828 149.137 Q 48.2433 148.498 47.6912 147.831 Q 47.139 147.164 46.6208 146.47 Q 46.1026 145.776 45.6195 145.057 Q 45.1365 144.338 44.6898 143.596 Q 44.2431 142.854 43.834 142.091 Q 43.4248 141.328 43.0541 140.545 Q 42.6835 139.762 42.3522 138.962 Q 42.021 138.162 41.73 137.346 Q 41.439 136.53 41.189 135.701 Q 40.939 134.872 40.7306 134.032 Q 40.5221 133.191 40.3558 132.341 Q 40.1895 131.491 40.0657 130.634 C 38.717 121.456 41.2568 112.775 46.8442 105.422 C 53.3407 96.8732 62.0484 93.0657 72.4678 91.7116 Z M 315.51 682.412 C 295.928 682.35 276.187 679.852 261.027 694.883 Q 260.296 695.597 259.602 696.347 Q 258.908 697.097 258.253 697.881 Q 257.597 698.665 256.982 699.481 Q 256.367 700.297 255.793 701.143 Q 255.22 701.988 254.69 702.862 Q 254.159 703.735 253.674 704.634 Q 253.188 705.533 252.748 706.456 Q 252.308 707.378 251.915 708.321 Q 251.522 709.265 251.177 710.226 Q 250.832 711.188 250.536 712.166 Q 250.239 713.144 249.992 714.136 Q 249.746 715.127 249.549 716.13 Q 249.352 717.133 249.206 718.144 Q 249.06 719.155 248.965 720.173 Q 248.87 721.19 248.826 722.211 Q 248.782 723.232 248.79 724.254 C 248.764 735.847 254.349 747.114 262.459 755.196 C 262.589 755.327 262.725 755.453 262.858 755.581 C 274.134 764.879 283.226 766.126 297.488 766.141 L 317.92 766.104 L 318.113 727.45 C 318.18 713.627 319.664 695.632 315.647 682.497 L 315.51 682.412 Z" stroke-linecap="round" />
</g>
		<g transform="matrix(1 0 0 1 -387.68 -374.1)" id="path_1"  >
<path style="stroke: none; stroke-width: 1; stroke-dasharray: none; stroke-linecap: butt; stroke-dashoffset: 0; stroke-linejoin: miter; stroke-miterlimit: 4; fill: rgb(159,38,193); fill-rule: nonzero; opacity: 1;"  transform=" translate(-124.36, -132.17)" d="M 189.895 122.396 C 190.166 127.307 190.221 132.841 186.828 136.819 C 183.106 141.181 174.324 141.011 169.037 141.254 C 151.672 142.052 134.351 141.437 116.982 141.528 C 102.463 141.604 87.3572 142.736 72.9218 141.037 C 69.5219 140.637 65.834 140.21 63.1767 137.861 C 60.342 135.356 58.8399 131.22 58.7141 127.497 C 58.6555 125.762 58.9551 124.06 59.3457 122.379 C 62.1042 124.305 65.1113 126.175 68.3933 127.046 C 76.4446 129.184 86.8887 128.067 95.2199 128.07 L 134.805 128.062 C 147.179 128.061 166.38 129.24 177.962 127.556 C 182.413 126.91 186.115 124.675 189.895 122.396 Z" stroke-linecap="round" />
</g>
		<g transform="matrix(1 0 0 1 -387.41 -387.09)" id="path_2"  >
<path style="stroke: none; stroke-width: 1; stroke-dasharray: none; stroke-linecap: butt; stroke-dashoffset: 0; stroke-linejoin: miter; stroke-miterlimit: 4; fill: rgb(170,39,237); fill-rule: nonzero; opacity: 1;"  transform=" translate(-124.62, -119.18)" d="M 59.3457 122.379 C 60.9659 118.582 64.2532 113.756 68.1304 112.081 C 75.2938 108.987 161.503 109.878 174.325 110.608 C 176.729 110.745 179.431 110.945 181.641 111.943 C 186.143 113.977 188.158 118.064 189.895 122.396 C 186.115 124.675 182.413 126.91 177.962 127.556 C 166.38 129.24 147.179 128.061 134.805 128.062 L 95.2199 128.07 C 86.8887 128.067 76.4446 129.184 68.3933 127.046 C 65.1113 126.175 62.1042 124.305 59.3457 122.379 Z" stroke-linecap="round" />
</g>
		<g transform="matrix(1 0 0 1 233.27 358.27)" id="path_3"  >
<path style="stroke: none; stroke-width: 1; stroke-dasharray: none; stroke-linecap: butt; stroke-dashoffset: 0; stroke-linejoin: miter; stroke-miterlimit: 4; fill: rgb(65,80,94); fill-rule: nonzero; opacity: 1;"  transform=" translate(-745.31, -864.54)" d="M 691.109 827.436 C 695.988 838.961 702.453 851.209 714.734 856.301 C 714.892 856.366 715.055 856.42 715.216 856.48 L 715.458 856.842 C 717.311 859.649 718.657 862.774 720.555 865.536 C 724.351 871.061 731.763 875.438 738.253 876.835 C 749.204 879.192 755.13 875.401 764.531 870.783 C 765.995 870.932 767.289 870.852 768.745 870.675 C 784.155 868.803 792.913 861.326 802.187 849.469 C 801.974 852.526 801.516 855.421 800.745 858.386 C 796.778 873.629 786.689 885.977 773.145 893.852 Q 771.936 894.562 770.694 895.211 Q 769.452 895.86 768.179 896.446 Q 766.906 897.033 765.605 897.555 Q 764.304 898.078 762.979 898.536 Q 761.655 898.993 760.309 899.385 Q 758.963 899.776 757.599 900.1 Q 756.235 900.424 754.857 900.68 Q 753.479 900.937 752.09 901.124 Q 750.701 901.311 749.305 901.43 Q 747.908 901.548 746.507 901.597 Q 745.106 901.646 743.705 901.625 Q 742.303 901.605 740.904 901.515 Q 739.506 901.425 738.113 901.265 Q 736.72 901.106 735.337 900.878 Q 733.954 900.65 732.585 900.353 Q 731.215 900.057 729.861 899.693 C 715.324 895.818 703.179 885.869 695.731 872.911 C 687.249 858.153 686.795 843.554 691.109 827.436 Z" stroke-linecap="round" />
</g>
		<g transform="matrix(1 0 0 1 -112.37 339.59)" id="path_4"  >
<path style="stroke: none; stroke-width: 1; stroke-dasharray: none; stroke-linecap: butt; stroke-dashoffset: 0; stroke-linejoin: miter; stroke-miterlimit: 4; fill: rgb(65,80,94); fill-rule: nonzero; opacity: 1;"  transform=" translate(-399.67, -845.86)" d="M 456.923 864.442 C 455.099 870.671 451.72 876.494 447.653 881.519 C 437.793 893.699 422.836 901.152 407.308 902.684 C 391.195 904.273 375.564 899.718 363.051 889.392 Q 361.961 888.505 360.917 887.564 Q 359.873 886.623 358.878 885.63 Q 357.882 884.638 356.938 883.597 Q 355.994 882.555 355.104 881.468 Q 354.213 880.38 353.379 879.249 Q 352.544 878.118 351.768 876.947 Q 350.991 875.775 350.275 874.566 Q 349.558 873.357 348.904 872.113 Q 348.249 870.869 347.658 869.594 Q 347.066 868.319 346.54 867.016 Q 346.014 865.713 345.554 864.385 Q 345.094 863.056 344.701 861.707 Q 344.309 860.357 343.985 858.99 Q 343.661 857.622 343.406 856.24 Q 343.151 854.857 342.966 853.464 Q 342.781 852.071 342.667 850.67 Q 342.533 849.269 342.469 847.864 Q 342.404 846.458 342.41 845.051 Q 342.415 843.644 342.491 842.239 Q 342.566 840.834 342.711 839.435 Q 342.856 838.035 343.07 836.645 Q 343.284 835.254 343.567 833.876 Q 343.85 832.498 344.201 831.135 Q 344.553 829.773 344.971 828.429 Q 345.389 827.086 345.874 825.765 Q 346.358 824.444 346.907 823.149 Q 347.457 821.853 348.07 820.587 Q 348.683 819.32 349.358 818.086 Q 350.033 816.852 350.769 815.652 Q 351.504 814.453 352.299 813.291 Q 353.093 812.13 353.944 811.009 Q 354.795 809.889 355.7 808.812 C 364.232 798.771 376.035 789.848 389.57 788.727 C 374.804 801.779 361.307 817.041 360.074 837.724 C 359.371 849.535 362.924 862.157 370.872 871.106 C 378.12 879.266 388.225 883.041 398.954 883.552 C 411.899 884.168 425.995 880.923 437.464 874.923 C 443.997 871.506 450.163 867.42 456.923 864.442 Z" stroke-linecap="round" />
</g>
		<g transform="matrix(1 0 0 1 235.07 326.42)" id="path_5"  >
<path style="stroke: none; stroke-width: 1; stroke-dasharray: none; stroke-linecap: butt; stroke-dashoffset: 0; stroke-linejoin: miter; stroke-miterlimit: 4; fill: rgb(106,119,128); fill-rule: nonzero; opacity: 1;"  transform=" translate(-747.1, -832.69)" d="M 691.109 827.436 C 699.328 811.228 710.682 796.341 728.619 790.424 C 743.043 785.666 759.71 787.649 773.147 794.469 Q 774.355 795.094 775.531 795.777 Q 776.707 796.461 777.848 797.201 Q 778.988 797.942 780.091 798.739 Q 781.194 799.535 782.255 800.385 Q 783.317 801.235 784.336 802.136 Q 785.355 803.037 786.327 803.988 Q 787.3 804.938 788.225 805.936 Q 789.149 806.934 790.024 807.976 Q 790.898 809.018 791.719 810.102 Q 792.541 811.186 793.308 812.309 Q 794.075 813.432 794.785 814.592 Q 795.496 815.752 796.148 816.945 Q 796.8 818.139 797.393 819.363 Q 797.985 820.588 798.516 821.84 Q 799.048 823.092 799.516 824.369 Q 799.985 825.646 800.39 826.944 C 802.429 833.341 804.247 842.921 802.187 849.469 C 792.913 861.326 784.155 868.803 768.745 870.675 C 767.289 870.852 765.995 870.932 764.531 870.783 C 755.13 875.401 749.204 879.192 738.253 876.835 C 731.763 875.438 724.351 871.061 720.555 865.536 C 718.657 862.774 717.311 859.649 715.458 856.842 L 715.216 856.48 C 715.055 856.42 714.892 856.366 714.734 856.301 C 702.453 851.209 695.988 838.961 691.109 827.436 Z" stroke-linecap="round" />
</g>
		<g transform="matrix(1 0 0 1 233.1 339.13)" id="path_6"  >
<path style="stroke: none; stroke-width: 1; stroke-dasharray: none; stroke-linecap: butt; stroke-dashoffset: 0; stroke-linejoin: miter; stroke-miterlimit: 4; fill: rgb(14,28,45); fill-rule: nonzero; opacity: 1;"  transform=" translate(-745.13, -845.4)" d="M 715.216 856.48 C 712.605 847.313 712.147 838.418 716.868 829.785 Q 717.244 829.081 717.656 828.397 Q 718.067 827.714 718.513 827.052 Q 718.959 826.39 719.437 825.751 Q 719.916 825.113 720.427 824.5 Q 720.937 823.886 721.478 823.3 Q 722.019 822.713 722.589 822.155 Q 723.159 821.596 723.757 821.068 Q 724.355 820.539 724.979 820.041 Q 725.603 819.543 726.251 819.078 Q 726.899 818.613 727.57 818.181 Q 728.241 817.749 728.933 817.352 Q 729.626 816.955 730.337 816.593 Q 731.048 816.232 731.777 815.907 Q 732.506 815.582 733.251 815.295 Q 733.995 815.007 734.753 814.758 Q 735.511 814.508 736.281 814.298 C 744.679 811.989 753.675 813.557 761.118 817.936 C 768.535 822.298 773.972 829.062 776.106 837.466 C 778.179 845.631 776.513 854.145 772.219 861.295 Q 770.617 863.91 768.687 866.292 Q 766.757 868.674 764.531 870.783 C 755.13 875.401 749.204 879.192 738.253 876.835 C 731.763 875.438 724.351 871.061 720.555 865.536 C 718.657 862.774 717.311 859.649 715.458 856.842 L 715.216 856.48 Z" stroke-linecap="round" />
</g>
		<g transform="matrix(1 0 0 1 230.72 347.83)" id="path_7"  >
<path style="stroke: none; stroke-width: 1; stroke-dasharray: none; stroke-linecap: butt; stroke-dashoffset: 0; stroke-linejoin: miter; stroke-miterlimit: 4; fill: rgb(132,45,176); fill-rule: nonzero; opacity: 1;"  transform=" translate(-742.76, -854.1)" d="M 719.927 836.289 C 727.806 848.569 738.067 855.275 752.347 858.418 Q 759.58 859.972 766.977 860.104 C 764.5 863.582 761.867 866.614 758.141 868.818 C 752.141 872.366 745.102 872.65 738.501 870.761 C 731.265 868.69 725.14 863.988 721.603 857.289 C 718.073 850.605 717.711 843.434 719.927 836.289 Z" stroke-linecap="round" />
</g>
		<g transform="matrix(1 0 0 1 233.49 333.09)" id="path_8"  >
<path style="stroke: none; stroke-width: 1; stroke-dasharray: none; stroke-linecap: butt; stroke-dashoffset: 0; stroke-linejoin: miter; stroke-miterlimit: 4; fill: rgb(150,201,204); fill-rule: nonzero; opacity: 1;"  transform=" translate(-745.53, -839.36)" d="M 719.927 836.289 C 722.939 829.133 727.667 823.296 735.112 820.38 C 741.782 817.768 749.004 818.1 755.485 821.104 C 762.214 824.223 767.362 829.788 769.761 836.839 C 772.401 844.598 771.013 852.386 767.313 859.477 L 766.977 860.104 Q 759.58 859.973 752.347 858.418 C 738.067 855.275 727.806 848.569 719.927 836.289 Z" stroke-linecap="round" />
</g>
		<g transform="matrix(1 0 0 1 -101.74 329.22)" id="path_9"  >
<linearGradient id="SVGID_gradient_0_1" gradientUnits="userSpaceOnUse" gradientTransform="matrix(1 0 0 1 0 0)"  x1="379.14728" y1="877.52191" x2="440.45175" y2="803.53137">
<stop offset="0%" style="stop-color:rgb(84,100,114);stop-opacity: 1"/>
<stop offset="100%" style="stop-color:rgb(125,143,152);stop-opacity: 1"/>
</linearGradient>
<path style="stroke: none; stroke-width: 1; stroke-dasharray: none; stroke-linecap: butt; stroke-dashoffset: 0; stroke-linejoin: miter; stroke-miterlimit: 4; fill: url(#SVGID_gradient_0_1); fill-rule: nonzero; opacity: 1;"  transform=" translate(-410.29, -835.49)" d="M 389.57 788.727 C 403.748 785.383 419.204 788.33 431.582 795.913 C 445.363 804.355 455.679 817.558 459.372 833.411 C 461.833 843.973 460.382 854.278 456.923 864.442 C 450.163 867.42 443.997 871.506 437.464 874.923 C 425.995 880.923 411.899 884.168 398.954 883.552 C 388.225 883.041 378.12 879.266 370.872 871.106 C 362.924 862.157 359.371 849.535 360.074 837.724 C 361.307 817.041 374.804 801.779 389.57 788.727 Z" stroke-linecap="round" />
</g>
		<g transform="matrix(1 0 0 1 -109.98 338.82)" id="path_10"  >
<path style="stroke: none; stroke-width: 1; stroke-dasharray: none; stroke-linecap: butt; stroke-dashoffset: 0; stroke-linejoin: miter; stroke-miterlimit: 4; fill: rgb(14,28,45); fill-rule: nonzero; opacity: 1;"  transform=" translate(-402.05, -845.09)" d="M 399.712 813.622 C 406.937 813.236 413.653 814.521 419.706 818.768 C 426.762 823.719 431.578 831.826 433.045 840.276 C 434.491 848.607 431.914 856.971 427.074 863.757 C 421.937 870.958 414.804 875.085 406.126 876.489 C 398.061 877.098 390.591 875.815 383.841 871.137 C 377.108 866.471 372.638 859.065 371.204 851.041 C 369.716 842.715 371.28 834.399 376.165 827.444 C 381.934 819.229 390.062 815.36 399.712 813.622 Z" stroke-linecap="round" />
</g>
		<g transform="matrix(1 0 0 1 -110.08 340.53)" id="path_11"  >
<path style="stroke: none; stroke-width: 1; stroke-dasharray: none; stroke-linecap: butt; stroke-dashoffset: 0; stroke-linejoin: miter; stroke-miterlimit: 4; fill: rgb(132,45,176); fill-rule: nonzero; opacity: 1;"  transform=" translate(-401.96, -846.8)" d="M 426.934 850.762 C 424.913 857.556 421.244 863.1 414.935 866.626 C 408.99 869.948 401.588 870.902 395.036 868.977 Q 394.417 868.797 393.809 868.586 Q 393.2 868.375 392.602 868.133 Q 392.005 867.891 391.421 867.619 Q 390.837 867.348 390.267 867.047 Q 389.697 866.746 389.143 866.416 Q 388.59 866.087 388.053 865.73 Q 387.517 865.373 386.999 864.989 Q 386.482 864.605 385.984 864.195 Q 385.487 863.786 385.011 863.352 Q 384.535 862.917 384.081 862.459 Q 383.628 862.002 383.198 861.521 Q 382.769 861.041 382.364 860.54 Q 381.959 860.038 381.58 859.517 Q 381.201 858.996 380.85 858.456 Q 380.498 857.916 380.174 857.359 Q 379.849 856.803 379.554 856.23 C 376.465 850.12 376.224 842.812 378.461 836.383 C 380.29 831.124 383.921 826.145 388.964 823.628 C 388.002 825.182 387.05 826.738 386.023 828.249 C 386.185 835.044 386.723 841.035 391.994 846.017 C 398.01 851.703 407.619 853.167 415.606 852.702 C 419.471 852.477 423.205 851.785 426.934 850.762 Z" stroke-linecap="round" />
</g>
		<g transform="matrix(1 0 0 1 -105.45 329.96)" id="path_12"  >
<path style="stroke: none; stroke-width: 1; stroke-dasharray: none; stroke-linecap: butt; stroke-dashoffset: 0; stroke-linejoin: miter; stroke-miterlimit: 4; fill: rgb(150,201,204); fill-rule: nonzero; opacity: 1;"  transform=" translate(-406.58, -836.23)" d="M 388.964 823.628 C 393.644 820.21 400.17 819.036 405.8 820.023 Q 406.431 820.138 407.055 820.284 Q 407.679 820.431 408.296 820.608 Q 408.912 820.785 409.518 820.993 Q 410.125 821.2 410.72 821.438 Q 411.316 821.676 411.899 821.943 Q 412.482 822.21 413.051 822.506 Q 413.62 822.801 414.173 823.125 Q 414.726 823.449 415.263 823.8 Q 415.8 824.151 416.318 824.528 Q 416.836 824.905 417.335 825.308 Q 417.834 825.711 418.313 826.138 Q 418.791 826.565 419.248 827.015 Q 419.704 827.465 420.137 827.938 Q 420.571 828.41 420.98 828.904 Q 421.389 829.397 421.774 829.911 Q 422.158 830.424 422.516 830.956 C 426.372 836.603 427.517 842.514 427.038 849.247 L 426.934 850.762 C 423.205 851.785 419.471 852.477 415.606 852.702 C 407.619 853.167 398.01 851.703 391.994 846.017 C 386.723 841.035 386.185 835.044 386.023 828.249 C 387.05 826.738 388.002 825.182 388.964 823.628 Z" stroke-linecap="round" />
</g>
		<g transform="matrix(1 0 0 1 110.49 244.06)" id="path_13"  >
<path style="stroke: none; stroke-width: 1; stroke-dasharray: none; stroke-linecap: butt; stroke-dashoffset: 0; stroke-linejoin: miter; stroke-miterlimit: 4; fill: rgb(254,254,254); fill-rule: nonzero; opacity: 1;"  transform=" translate(-622.52, -750.33)" d="M 879.644 734.727 C 887.264 734.603 897.132 733.91 903.275 739.306 C 906.281 741.946 907.65 745.675 907.789 749.612 Q 907.822 750.396 907.775 751.179 Q 907.729 751.962 907.603 752.736 Q 907.476 753.51 907.272 754.268 Q 907.068 755.025 906.788 755.757 Q 906.508 756.49 906.154 757.191 Q 905.801 757.891 905.379 758.552 Q 904.956 759.213 904.468 759.827 Q 903.981 760.441 903.433 761.003 C 900.311 764.145 896.445 764.968 892.179 765.296 C 873.697 766.714 855.049 765.522 836.537 765.519 L 730.095 765.742 L 367.25 766.027 L 337.464 766.018 C 337.223 755.88 336.816 745.282 338.457 735.255 L 703.435 734.974 L 816.303 734.979 C 837.368 734.98 858.597 735.517 879.644 734.727 Z" stroke-linecap="round" />
</g>
		<g transform="matrix(1 0 0 1 58.27 -75.74)" id="path_14"  >
<path style="stroke: none; stroke-width: 1; stroke-dasharray: none; stroke-linecap: butt; stroke-dashoffset: 0; stroke-linejoin: miter; stroke-miterlimit: 4; fill: rgb(132,45,176); fill-rule: nonzero; opacity: 1;"  transform=" translate(-570.31, -430.53)" d="M 259.012 223.501 L 298.921 223.493 L 343.907 474.692 L 357.606 551.192 C 360.354 567.057 362.412 583.39 366.18 599.036 L 394.663 598.646 C 399.975 598.576 405.563 598.89 410.815 598.089 C 411.66 603.895 412.406 611.733 417.48 615.547 C 420.932 618.142 425.826 618.181 429.969 618.406 C 439.807 618.942 449.657 618.173 459.494 618.029 C 474.522 617.808 489.575 617.972 504.605 617.98 L 699.359 618.436 L 771.368 617.978 C 784.713 617.954 798.13 617.67 811.451 618.501 L 815.116 599.089 C 818.893 600.41 873.771 599.623 881.606 599.297 C 878.284 610.056 877.894 620.288 869.375 628.636 C 863.947 633.956 857.465 636.151 850.058 636.847 C 841.685 637.633 833.115 637.29 824.711 637.235 L 788.335 637.033 L 676.497 637.232 L 464.341 637.279 Q 396.782 637.727 329.228 636.789 Q 306.046 506.061 284.668 375.025 L 268.762 280.97 C 265.47 261.833 261.818 242.715 259.012 223.501 Z" stroke-linecap="round" />
</g>
		<g transform="matrix(1 0 0 1 120.01 -94.82)" id="path_15"  >
<path style="stroke: none; stroke-width: 1; stroke-dasharray: none; stroke-linecap: butt; stroke-dashoffset: 0; stroke-linejoin: miter; stroke-miterlimit: 4; fill: rgb(150,201,204); fill-rule: nonzero; opacity: 1;"  transform=" translate(-632.04, -411.45)" d="M 298.921 223.493 Q 374.182 222.942 449.444 223.489 L 720.16 223.5 L 865.88 223.501 L 906.241 223.469 C 915.292 223.377 924.522 222.735 933.539 223.578 C 941.715 224.342 948.899 227.353 954.779 233.156 C 961.79 240.073 965.217 249.587 965.167 259.351 C 965.088 274.763 955.182 304.562 951.019 320.717 L 922.066 433.739 L 893.141 551.294 C 889.245 567.276 885.954 583.433 881.606 599.297 C 873.771 599.623 818.893 600.41 815.116 599.089 C 818.869 583.159 821.501 566.882 824.563 550.804 L 840.56 467.061 L 865.068 339.336 C 868.277 322.639 872.018 305.957 874.964 289.225 C 875.44 286.522 876.528 280.993 875.602 278.393 C 875.079 276.923 873.717 275.254 872.326 274.547 C 869.163 272.94 865.374 272.412 861.862 272.199 C 848.794 271.405 835.5 272.481 822.404 272.539 L 742.549 272.555 L 458.796 272.554 C 449.622 272.551 440.432 272.654 431.26 272.518 C 418.876 272.335 366.741 270.51 358.908 273.215 C 355.269 274.472 354.122 276.828 352.514 280.046 C 353.938 293.477 357.032 306.651 359.417 319.93 L 373.12 395.356 L 410.815 598.089 C 405.563 598.89 399.975 598.576 394.663 598.646 L 366.18 599.036 C 362.412 583.39 360.354 567.057 357.606 551.192 L 343.907 474.692 L 298.921 223.493 Z" stroke-linecap="round" />
</g>
		<g transform="matrix(1 0 0 1 102.2 -61.1)" id="path_16"  >
<path style="stroke: none; stroke-width: 1; stroke-dasharray: none; stroke-linecap: butt; stroke-dashoffset: 0; stroke-linejoin: miter; stroke-miterlimit: 4; fill: rgb(14,28,45); fill-rule: nonzero; opacity: 1;"  transform=" translate(-614.24, -445.17)" d="M 352.514 280.046 C 354.122 276.828 355.269 274.472 358.908 273.215 C 366.741 270.51 418.876 272.335 431.26 272.518 C 440.432 272.654 449.622 272.551 458.796 272.554 L 742.549 272.555 L 822.404 272.539 C 835.5 272.481 848.794 271.405 861.862 272.199 C 865.374 272.412 869.163 272.94 872.326 274.547 C 873.717 275.254 875.079 276.923 875.602 278.393 C 876.528 280.993 875.44 286.522 874.964 289.225 C 872.018 305.957 868.277 322.639 865.068 339.336 L 840.56 467.061 L 824.563 550.804 C 821.501 566.882 818.869 583.159 815.116 599.089 L 811.451 618.501 C 798.13 617.67 784.713 617.954 771.368 617.978 L 699.359 618.436 L 504.605 617.98 C 489.575 617.972 474.522 617.808 459.494 618.029 C 449.657 618.173 439.807 618.942 429.969 618.406 C 425.826 618.181 420.932 618.142 417.48 615.547 C 412.406 611.733 411.66 603.895 410.815 598.089 L 373.12 395.356 L 359.417 319.93 C 357.032 306.651 353.938 293.477 352.514 280.046 Z" stroke-linecap="round" />
</g>
		<g transform="matrix(1 0 0 1 -31.79 -47.22)" id="path_17"  >
<path style="stroke: none; stroke-width: 1; stroke-dasharray: none; stroke-linecap: butt; stroke-dashoffset: 0; stroke-linejoin: miter; stroke-miterlimit: 4; fill: rgb(250,190,74); fill-rule: nonzero; opacity: 1;"  transform=" translate(-480.25, -459.05)" d="M 464.24 442 L 491.806 441.996 Q 494.334 458.516 496.254 475.118 L 495.868 475.912 L 494.769 476.097 C 488.822 474.114 467.846 448.568 464.24 442 Z" stroke-linecap="round" />
</g>
		<g transform="matrix(1 0 0 1 248.79 75.8)" id="path_18"  >
<path style="stroke: none; stroke-width: 1; stroke-dasharray: none; stroke-linecap: butt; stroke-dashoffset: 0; stroke-linejoin: miter; stroke-miterlimit: 4; fill: rgb(170,39,237); fill-rule: nonzero; opacity: 1;"  transform=" translate(-760.82, -582.07)" d="M 723.293 567.878 C 733.986 570.76 766.063 569.323 778.368 567.84 C 785.815 566.942 794.833 564.17 802.279 565.415 C 799.69 576.498 797.232 587.832 795.28 599.04 L 719.362 598.991 C 720.853 588.646 721.934 578.243 723.293 567.878 Z" stroke-linecap="round" />
</g>
		<g transform="matrix(1 0 0 1 151.97 68.42)" id="path_19"  >
<path style="stroke: none; stroke-width: 1; stroke-dasharray: none; stroke-linecap: butt; stroke-dashoffset: 0; stroke-linejoin: miter; stroke-miterlimit: 4; fill: rgb(170,39,237); fill-rule: nonzero; opacity: 1;"  transform=" translate(-664, -574.69)" d="M 624.497 550.097 C 637.28 553.395 649.798 557.456 662.695 560.39 C 676.169 563.455 689.923 565.319 703.522 567.716 C 702.423 578.135 701.148 588.706 699.379 599.031 L 624.487 599.291 L 624.497 550.097 Z" stroke-linecap="round" />
</g>
		<g transform="matrix(1 0 0 1 -98.21 -148.68)" id="path_20"  >
<path style="stroke: none; stroke-width: 1; stroke-dasharray: none; stroke-linecap: butt; stroke-dashoffset: 0; stroke-linejoin: miter; stroke-miterlimit: 4; fill: rgb(170,39,237); fill-rule: nonzero; opacity: 1;"  transform=" translate(-413.82, -357.59)" d="M 374.786 292.255 C 388.922 291.671 403.187 291.882 417.332 292.072 C 416.338 293.061 415.216 293.707 415.15 295.205 C 414.952 299.666 417.087 305.737 417.814 310.302 C 419.003 317.768 419.97 325.341 421.491 332.745 Q 423.655 342.921 426.363 352.966 Q 429.071 363.011 432.317 372.896 Q 435.562 382.781 439.334 392.477 Q 443.106 402.172 447.395 411.651 C 448.696 414.557 450.543 420.615 452.861 422.701 C 447.091 423.776 439.984 423.067 434.055 423.077 L 398.239 423.239 L 382.786 337.605 C 380.037 322.502 376.67 307.5 374.786 292.255 Z" stroke-linecap="round" />
</g>
		<g transform="matrix(1 0 0 1 49.47 41.21)" id="path_21"  >
<path style="stroke: none; stroke-width: 1; stroke-dasharray: none; stroke-linecap: butt; stroke-dashoffset: 0; stroke-linejoin: miter; stroke-miterlimit: 4; fill: rgb(170,39,237); fill-rule: nonzero; opacity: 1;"  transform=" translate(-561.51, -547.48)" d="M 517.757 495.929 C 525.797 499.682 532.541 506.631 540.051 511.385 C 554.985 520.838 571.136 528.401 587.215 535.667 C 593.073 538.314 598.949 541.318 605.014 543.429 L 605.255 599.012 L 529.007 599.022 C 525.533 564.61 521.926 530.274 517.757 495.929 Z" stroke-linecap="round" />
</g>
		<g transform="matrix(1 0 0 1 -59.92 -148.84)" id="path_22"  >
<path style="stroke: none; stroke-width: 1; stroke-dasharray: none; stroke-linecap: butt; stroke-dashoffset: 0; stroke-linejoin: miter; stroke-miterlimit: 4; fill: rgb(250,190,74); fill-rule: nonzero; opacity: 1;"  transform=" translate(-452.12, -357.43)" d="M 417.332 292.072 Q 444.352 291.929 471.371 292.258 C 473.87 315.654 477.601 339.038 480.672 362.376 C 483.277 382.165 485.213 403.183 489.096 422.722 C 476.988 423.235 464.906 422.233 452.861 422.701 C 450.543 420.615 448.696 414.557 447.395 411.651 Q 443.106 402.172 439.334 392.477 Q 435.562 382.781 432.317 372.896 Q 429.071 363.011 426.363 352.966 Q 423.655 342.921 421.491 332.745 C 419.97 325.341 419.003 317.768 417.814 310.302 C 417.087 305.737 414.952 299.666 415.15 295.205 C 415.216 293.707 416.338 293.061 417.332 292.072 Z" stroke-linecap="round" />
</g>
		<g transform="matrix(1 0 0 1 46.46 -13.69)" id="path_23"  >
<path style="stroke: none; stroke-width: 1; stroke-dasharray: none; stroke-linecap: butt; stroke-dashoffset: 0; stroke-linejoin: miter; stroke-miterlimit: 4; fill: rgb(250,190,74); fill-rule: nonzero; opacity: 1;"  transform=" translate(-558.49, -492.58)" d="M 511.364 442.492 Q 558.442 441.528 605.524 442.234 Q 605.694 492.834 605.014 543.429 C 598.949 541.318 593.073 538.314 587.215 535.667 C 571.136 528.401 554.985 520.838 540.051 511.385 C 532.541 506.631 525.797 499.682 517.757 495.929 Q 515.289 479.015 513.463 462.02 C 512.699 455.512 511.694 449.043 511.364 442.492 Z" stroke-linecap="round" />
</g>
		<g transform="matrix(1 0 0 1 159.75 -1.57)" id="path_24"  >
<path style="stroke: none; stroke-width: 1; stroke-dasharray: none; stroke-linecap: butt; stroke-dashoffset: 0; stroke-linejoin: miter; stroke-miterlimit: 4; fill: rgb(250,190,74); fill-rule: nonzero; opacity: 1;"  transform=" translate(-671.79, -504.7)" d="M 624.484 442.242 C 655.925 442.019 687.683 441.095 719.096 442.278 C 713.04 483.961 708.671 525.919 703.522 567.716 C 689.923 565.319 676.169 563.455 662.695 560.39 C 649.798 557.456 637.28 553.395 624.497 550.097 L 624.484 442.242 Z" stroke-linecap="round" />
</g>
		<g transform="matrix(1 0 0 1 262.27 -0.5)" id="path_25"  >
<path style="stroke: none; stroke-width: 1; stroke-dasharray: none; stroke-linecap: butt; stroke-dashoffset: 0; stroke-linejoin: miter; stroke-miterlimit: 4; fill: rgb(250,190,74); fill-rule: nonzero; opacity: 1;"  transform=" translate(-774.3, -505.77)" d="M 738.626 441.996 L 825.311 442.005 C 821.716 459.123 818.965 476.451 815.722 493.645 C 811.216 517.545 806.327 541.437 802.279 565.415 C 794.833 564.17 785.815 566.942 778.368 567.84 C 766.063 569.323 733.986 570.76 723.293 567.878 C 726.122 543.221 728.751 518.49 731.975 493.883 C 734.237 476.616 737.265 459.364 738.626 441.996 Z" stroke-linecap="round" />
</g>
		<g transform="matrix(1 0 0 1 286.04 -148.64)" id="path_26"  >
<path style="stroke: none; stroke-width: 1; stroke-dasharray: none; stroke-linecap: butt; stroke-dashoffset: 0; stroke-linejoin: miter; stroke-miterlimit: 4; fill: rgb(250,190,74); fill-rule: nonzero; opacity: 1;"  transform=" translate(-798.08, -357.63)" d="M 846.527 291.755 L 854.855 291.747 C 850.77 309.4 847.805 327.499 844.345 345.298 C 839.289 371.308 833.944 397.299 829.27 423.379 C 802.845 422.705 776.196 423.425 749.75 423.494 L 741.302 423.511 C 742.045 407.26 744.861 391.168 746.896 375.045 L 757.188 291.999 L 846.527 291.755 Z" stroke-linecap="round" />
</g>
		<g transform="matrix(1 0 0 1 -55.65 14.49)" id="path_27"  >
<path style="stroke: none; stroke-width: 1; stroke-dasharray: none; stroke-linecap: butt; stroke-dashoffset: 0; stroke-linejoin: miter; stroke-miterlimit: 4; fill: rgb(170,39,237); fill-rule: nonzero; opacity: 1;"  transform=" translate(-456.39, -520.75)" d="M 402.2 442.002 L 464.24 442 C 467.846 448.568 488.822 474.114 494.769 476.097 L 495.868 475.912 L 496.254 475.118 C 498.184 480.489 498.541 494.873 499.339 501.467 C 503.272 533.958 506.444 566.522 510.574 598.997 L 430.187 599.51 C 426.321 582.208 423.87 564.253 420.769 546.77 L 402.2 442.002 Z" stroke-linecap="round" />
</g>
		<g transform="matrix(1 0 0 1 168.96 -148.89)" id="path_28"  >
<path style="stroke: none; stroke-width: 1; stroke-dasharray: none; stroke-linecap: butt; stroke-dashoffset: 0; stroke-linejoin: miter; stroke-miterlimit: 4; fill: rgb(250,190,74); fill-rule: nonzero; opacity: 1;"  transform=" translate(-680.99, -357.38)" d="M 677.566 291.744 L 737.61 292.263 C 734.794 308.181 733.6 324.454 731.716 340.505 L 721.817 423.024 L 685.25 422.859 C 665.011 422.585 644.734 422.914 624.492 423.004 C 624.483 379.344 624.126 335.653 624.685 291.997 L 677.566 291.744 Z" stroke-linecap="round" />
</g>
		<g transform="matrix(1 0 0 1 36.14 -148.76)" id="path_29"  >
<path style="stroke: none; stroke-width: 1; stroke-dasharray: none; stroke-linecap: butt; stroke-dashoffset: 0; stroke-linejoin: miter; stroke-miterlimit: 4; fill: rgb(250,190,74); fill-rule: nonzero; opacity: 1;"  transform=" translate(-548.18, -357.51)" d="M 490.835 291.999 L 605.522 292 L 605.509 423.014 L 508.668 423.011 C 504.53 395.902 500.931 368.752 497.303 341.566 C 495.102 325.069 492.574 308.549 490.835 291.999 Z" stroke-linecap="round" />
</g>
</g>
</g>
<g transform="matrix(0.53 0 0 0.53 250 250)"  >
<g style=""   >
		<g transform="matrix(1 0 0 1 0 0)" id="path_0"  >
<path style="stroke: none; stroke-width: 1; stroke-dasharray: none; stroke-linecap: butt; stroke-dashoffset: 0; stroke-linejoin: miter; stroke-miterlimit: 4; fill: rgb(14,28,45); fill-rule: nonzero; opacity: 1;"  transform=" translate(-512.04, -506.27)" d="M 72.4678 91.7116 C 89.7979 91.1044 107.299 91.5558 124.649 91.5508 C 138.021 91.5469 176.574 90.0326 186.727 93.2967 C 196.195 96.3407 202.161 104.056 206.706 112.457 C 214.421 112.538 222.953 114.295 229.564 118.425 C 235.092 121.878 239.341 127.037 242.007 132.961 C 246.093 142.044 246.859 152.964 248.412 162.743 C 250.596 176.492 252.541 190.547 255.777 204.087 L 723.501 204.056 L 865.277 203.886 L 909.134 203.78 C 918.144 203.762 927.411 203.281 936.372 204.27 C 947.99 205.551 957.921 210.056 966.601 217.923 Q 967.593 218.826 968.538 219.776 Q 969.484 220.726 970.382 221.722 Q 971.28 222.718 972.128 223.757 Q 972.976 224.795 973.771 225.875 Q 974.567 226.954 975.308 228.071 Q 976.05 229.188 976.735 230.341 Q 977.421 231.493 978.049 232.678 Q 978.677 233.862 979.245 235.077 Q 979.814 236.291 980.322 237.532 Q 980.831 238.772 981.277 240.037 Q 981.724 241.301 982.108 242.586 Q 982.491 243.87 982.811 245.172 Q 983.131 246.474 983.387 247.791 Q 983.642 249.107 983.833 250.434 Q 984.023 251.762 984.148 253.096 Q 984.272 254.431 984.331 255.771 C 985.066 275.502 971.748 315.997 966.616 336.766 L 922.247 514.049 Q 913.491 549.552 905.161 585.158 C 902.458 596.588 900.522 608.529 896.969 619.706 C 894.467 627.576 890.537 634.158 884.85 640.153 C 877.244 648.172 866.742 654.385 855.739 656.093 C 841.224 658.346 820.24 657.126 805.095 657.128 L 709.343 657.094 L 468.336 656.826 C 423.049 656.782 377.639 656.105 332.366 657.084 C 333.234 667.726 335.838 678.127 337.187 688.703 C 338.32 697.595 338.111 706.48 337.977 715.418 L 690.909 715.476 L 810.083 715.469 C 831.884 715.467 853.935 716.176 875.701 715.154 C 890.209 714.735 905.815 714.836 917.032 725.466 Q 917.648 726.044 918.234 726.652 Q 918.82 727.261 919.375 727.898 Q 919.929 728.535 920.451 729.2 Q 920.972 729.865 921.459 730.555 Q 921.946 731.245 922.397 731.959 Q 922.849 732.673 923.264 733.409 Q 923.678 734.145 924.055 734.901 Q 924.432 735.657 924.77 736.432 Q 925.107 737.206 925.406 737.996 Q 925.704 738.786 925.962 739.591 Q 926.219 740.395 926.436 741.212 Q 926.653 742.028 926.828 742.855 Q 927.003 743.681 927.135 744.515 Q 927.268 745.35 927.359 746.19 Q 927.449 747.029 927.497 747.873 Q 927.544 748.716 927.549 749.561 C 927.657 758.456 924.207 767.546 917.89 773.862 C 913.94 777.811 908.458 781.333 903.016 782.711 C 889.195 786.211 873.044 784.158 858.838 784.123 L 794.588 784.167 Q 797.481 786.998 800.229 789.97 C 814.738 805.814 822.835 826.101 821.778 847.662 Q 821.679 849.54 821.488 851.41 Q 821.298 853.28 821.015 855.139 Q 820.733 856.998 820.36 858.84 Q 819.986 860.683 819.523 862.505 Q 819.06 864.327 818.508 866.124 Q 817.956 867.922 817.317 869.69 Q 816.678 871.458 815.952 873.192 Q 815.227 874.927 814.417 876.623 Q 813.608 878.32 812.716 879.975 Q 811.824 881.63 810.852 883.24 Q 809.88 884.849 808.83 886.409 Q 807.781 887.969 806.656 889.475 Q 805.531 890.981 804.333 892.431 Q 803.136 893.88 801.869 895.269 Q 800.602 896.658 799.268 897.983 Q 797.934 899.308 796.537 900.566 C 780.383 915.131 759.591 921.627 738.019 920.489 C 718.698 919.47 699.335 909.304 686.523 894.953 C 673.391 880.246 667.091 860.065 668.355 840.506 C 669.8 818.136 681.368 800.42 697.878 785.998 C 656.272 785.088 614.522 785.82 572.9 785.778 C 531.945 785.738 490.941 784.906 449.991 785.607 Q 454.897 790.134 459.575 794.896 C 473.133 808.941 480.031 826.787 479.655 846.289 C 479.275 866.009 470.836 885.821 456.555 899.497 C 440.888 914.501 420.59 921.865 399.003 921.313 Q 398.035 921.287 397.068 921.238 Q 396.101 921.188 395.135 921.115 Q 394.17 921.041 393.207 920.944 Q 392.243 920.846 391.283 920.725 Q 390.322 920.603 389.365 920.458 Q 388.407 920.313 387.454 920.144 Q 386.5 919.975 385.551 919.783 Q 384.602 919.59 383.659 919.374 Q 382.715 919.158 381.776 918.919 Q 380.838 918.679 379.906 918.417 Q 378.974 918.154 378.049 917.869 Q 377.124 917.583 376.206 917.275 Q 375.288 916.966 374.378 916.635 Q 373.468 916.304 372.567 915.95 Q 371.665 915.597 370.773 915.221 Q 369.881 914.845 368.998 914.447 Q 368.115 914.049 367.242 913.629 Q 366.37 913.21 365.508 912.768 Q 364.646 912.327 363.795 911.865 Q 362.945 911.402 362.106 910.919 Q 361.267 910.435 360.44 909.931 Q 359.613 909.427 358.799 908.903 Q 357.985 908.378 357.185 907.834 Q 356.384 907.289 355.597 906.725 Q 354.81 906.161 354.037 905.578 Q 353.265 904.994 352.507 904.391 Q 351.749 903.789 351.006 903.168 Q 350.263 902.547 349.536 901.907 Q 348.809 901.268 348.098 900.61 Q 347.387 899.953 346.692 899.278 Q 345.997 898.604 345.32 897.912 Q 344.642 897.22 343.982 896.512 C 329.919 881.69 323.313 862.695 323.988 842.359 C 324.8 817.89 335.514 801.682 352.936 785.489 Q 333.616 785.374 314.297 785.475 C 290.17 785.582 267.663 786.763 249.152 768.555 Q 248.042 767.478 246.986 766.348 Q 245.931 765.218 244.933 764.037 Q 243.935 762.856 242.997 761.627 Q 242.058 760.397 241.182 759.123 Q 240.306 757.849 239.494 756.533 Q 238.682 755.217 237.936 753.863 Q 237.19 752.508 236.512 751.118 Q 235.834 749.728 235.226 748.306 Q 234.618 746.885 234.081 745.434 Q 233.544 743.984 233.08 742.509 Q 232.616 741.034 232.225 739.538 Q 231.834 738.042 231.518 736.528 Q 231.202 735.014 230.961 733.487 Q 230.721 731.959 230.556 730.422 Q 230.391 728.884 230.303 727.34 Q 230.215 725.796 230.203 724.25 C 230.112 707.935 235.866 693.29 247.353 681.662 C 266.822 661.955 288.088 663.236 313.767 663.121 L 259.427 341.568 L 237.094 208.524 C 233.889 189.521 231.411 170.255 227.632 151.369 C 226.801 147.218 225.94 142.639 223.653 139.005 C 220.252 133.6 214.631 132.575 208.865 131.287 C 207.952 136.594 205.704 142.045 202.605 146.453 C 197.295 154.005 189.844 158.06 180.845 159.566 C 168.31 161.663 145.585 160.478 132.101 160.477 L 96.794 160.457 C 86.766 160.444 76.4467 160.734 66.5182 159.131 C 61.9518 158.394 57.7253 156.443 53.9809 153.749 Q 53.2813 153.238 52.6081 152.694 Q 51.9348 152.149 51.2895 151.571 Q 50.6442 150.994 50.0284 150.385 Q 49.4127 149.776 48.828 149.137 Q 48.2433 148.498 47.6912 147.831 Q 47.139 147.164 46.6208 146.47 Q 46.1026 145.776 45.6195 145.057 Q 45.1365 144.338 44.6898 143.596 Q 44.2431 142.854 43.834 142.091 Q 43.4248 141.328 43.0541 140.545 Q 42.6835 139.762 42.3522 138.962 Q 42.021 138.162 41.73 137.346 Q 41.439 136.53 41.189 135.701 Q 40.939 134.872 40.7306 134.032 Q 40.5221 133.191 40.3558 132.341 Q 40.1895 131.491 40.0657 130.634 C 38.717 121.456 41.2568 112.775 46.8442 105.422 C 53.3407 96.8732 62.0484 93.0657 72.4678 91.7116 Z M 315.51 682.412 C 295.928 682.35 276.187 679.852 261.027 694.883 Q 260.296 695.597 259.602 696.347 Q 258.908 697.097 258.253 697.881 Q 257.597 698.665 256.982 699.481 Q 256.367 700.297 255.793 701.143 Q 255.22 701.988 254.69 702.862 Q 254.159 703.735 253.674 704.634 Q 253.188 705.533 252.748 706.456 Q 252.308 707.378 251.915 708.321 Q 251.522 709.265 251.177 710.226 Q 250.832 711.188 250.536 712.166 Q 250.239 713.144 249.992 714.136 Q 249.746 715.127 249.549 716.13 Q 249.352 717.133 249.206 718.144 Q 249.06 719.155 248.965 720.173 Q 248.87 721.19 248.826 722.211 Q 248.782 723.232 248.79 724.254 C 248.764 735.847 254.349 747.114 262.459 755.196 C 262.589 755.327 262.725 755.453 262.858 755.581 C 274.134 764.879 283.226 766.126 297.488 766.141 L 317.92 766.104 L 318.113 727.45 C 318.18 713.627 319.664 695.632 315.647 682.497 L 315.51 682.412 Z" stroke-linecap="round" />
</g>
		<g transform="matrix(1 0 0 1 -387.68 -374.1)" id="path_1"  >
<path style="stroke: none; stroke-width: 1; stroke-dasharray: none; stroke-linecap: butt; stroke-dashoffset: 0; stroke-linejoin: miter; stroke-miterlimit: 4; fill: rgb(159,38,193); fill-rule: nonzero; opacity: 1;"  transform=" translate(-124.36, -132.17)" d="M 189.895 122.396 C 190.166 127.307 190.221 132.841 186.828 136.819 C 183.106 141.181 174.324 141.011 169.037 141.254 C 151.672 142.052 134.351 141.437 116.982 141.528 C 102.463 141.604 87.3572 142.736 72.9218 141.037 C 69.5219 140.637 65.834 140.21 63.1767 137.861 C 60.342 135.356 58.8399 131.22 58.7141 127.497 C 58.6555 125.762 58.9551 124.06 59.3457 122.379 C 62.1042 124.305 65.1113 126.175 68.3933 127.046 C 76.4446 129.184 86.8887 128.067 95.2199 128.07 L 134.805 128.062 C 147.179 128.061 166.38 129.24 177.962 127.556 C 182.413 126.91 186.115 124.675 189.895 122.396 Z" stroke-linecap="round" />
</g>
		<g transform="matrix(1 0 0 1 -387.41 -387.09)" id="path_2"  >
<path style="stroke: none; stroke-width: 1; stroke-dasharray: none; stroke-linecap: butt; stroke-dashoffset: 0; stroke-linejoin: miter; stroke-miterlimit: 4; fill: rgb(170,39,237); fill-rule: nonzero; opacity: 1;"  transform=" translate(-124.62, -119.18)" d="M 59.3457 122.379 C 60.9659 118.582 64.2532 113.756 68.1304 112.081 C 75.2938 108.987 161.503 109.878 174.325 110.608 C 176.729 110.745 179.431 110.945 181.641 111.943 C 186.143 113.977 188.158 118.064 189.895 122.396 C 186.115 124.675 182.413 126.91 177.962 127.556 C 166.38 129.24 147.179 128.061 134.805 128.062 L 95.2199 128.07 C 86.8887 128.067 76.4446 129.184 68.3933 127.046 C 65.1113 126.175 62.1042 124.305 59.3457 122.379 Z" stroke-linecap="round" />
</g>
		<g transform="matrix(1 0 0 1 233.27 358.27)" id="path_3"  >
<path style="stroke: none; stroke-width: 1; stroke-dasharray: none; stroke-linecap: butt; stroke-dashoffset: 0; stroke-linejoin: miter; stroke-miterlimit: 4; fill: rgb(65,80,94); fill-rule: nonzero; opacity: 1;"  transform=" translate(-745.31, -864.54)" d="M 691.109 827.436 C 695.988 838.961 702.453 851.209 714.734 856.301 C 714.892 856.366 715.055 856.42 715.216 856.48 L 715.458 856.842 C 717.311 859.649 718.657 862.774 720.555 865.536 C 724.351 871.061 731.763 875.438 738.253 876.835 C 749.204 879.192 755.13 875.401 764.531 870.783 C 765.995 870.932 767.289 870.852 768.745 870.675 C 784.155 868.803 792.913 861.326 802.187 849.469 C 801.974 852.526 801.516 855.421 800.745 858.386 C 796.778 873.629 786.689 885.977 773.145 893.852 Q 771.936 894.562 770.694 895.211 Q 769.452 895.86 768.179 896.446 Q 766.906 897.033 765.605 897.555 Q 764.304 898.078 762.979 898.536 Q 761.655 898.993 760.309 899.385 Q 758.963 899.776 757.599 900.1 Q 756.235 900.424 754.857 900.68 Q 753.479 900.937 752.09 901.124 Q 750.701 901.311 749.305 901.43 Q 747.908 901.548 746.507 901.597 Q 745.106 901.646 743.705 901.625 Q 742.303 901.605 740.904 901.515 Q 739.506 901.425 738.113 901.265 Q 736.72 901.106 735.337 900.878 Q 733.954 900.65 732.585 900.353 Q 731.215 900.057 729.861 899.693 C 715.324 895.818 703.179 885.869 695.731 872.911 C 687.249 858.153 686.795 843.554 691.109 827.436 Z" stroke-linecap="round" />
</g>
		<g transform="matrix(1 0 0 1 -112.37 339.59)" id="path_4"  >
<path style="stroke: none; stroke-width: 1; stroke-dasharray: none; stroke-linecap: butt; stroke-dashoffset: 0; stroke-linejoin: miter; stroke-miterlimit: 4; fill: rgb(65,80,94); fill-rule: nonzero; opacity: 1;"  transform=" translate(-399.67, -845.86)" d="M 456.923 864.442 C 455.099 870.671 451.72 876.494 447.653 881.519 C 437.793 893.699 422.836 901.152 407.308 902.684 C 391.195 904.273 375.564 899.718 363.051 889.392 Q 361.961 888.505 360.917 887.564 Q 359.873 886.623 358.878 885.63 Q 357.882 884.638 356.938 883.597 Q 355.994 882.555 355.104 881.468 Q 354.213 880.38 353.379 879.249 Q 352.544 878.118 351.768 876.947 Q 350.991 875.775 350.275 874.566 Q 349.558 873.357 348.904 872.113 Q 348.249 870.869 347.658 869.594 Q 347.066 868.319 346.54 867.016 Q 346.014 865.713 345.554 864.385 Q 345.094 863.056 344.701 861.707 Q 344.309 860.357 343.985 858.99 Q 343.661 857.622 343.406 856.24 Q 343.151 854.857 342.966 853.464 Q 342.781 852.071 342.667 850.67 Q 342.533 849.269 342.469 847.864 Q 342.404 846.458 342.41 845.051 Q 342.415 843.644 342.491 842.239 Q 342.566 840.834 342.711 839.435 Q 342.856 838.035 343.07 836.645 Q 343.284 835.254 343.567 833.876 Q 343.85 832.498 344.201 831.135 Q 344.553 829.773 344.971 828.429 Q 345.389 827.086 345.874 825.765 Q 346.358 824.444 346.907 823.149 Q 347.457 821.853 348.07 820.587 Q 348.683 819.32 349.358 818.086 Q 350.033 816.852 350.769 815.652 Q 351.504 814.453 352.299 813.291 Q 353.093 812.13 353.944 811.009 Q 354.795 809.889 355.7 808.812 C 364.232 798.771 376.035 789.848 389.57 788.727 C 374.804 801.779 361.307 817.041 360.074 837.724 C 359.371 849.535 362.924 862.157 370.872 871.106 C 378.12 879.266 388.225 883.041 398.954 883.552 C 411.899 884.168 425.995 880.923 437.464 874.923 C 443.997 871.506 450.163 867.42 456.923 864.442 Z" stroke-linecap="round" />
</g>
		<g transform="matrix(1 0 0 1 235.07 326.42)" id="path_5"  >
<path style="stroke: none; stroke-width: 1; stroke-dasharray: none; stroke-linecap: butt; stroke-dashoffset: 0; stroke-linejoin: miter; stroke-miterlimit: 4; fill: rgb(106,119,128); fill-rule: nonzero; opacity: 1;"  transform=" translate(-747.1, -832.69)" d="M 691.109 827.436 C 699.328 811.228 710.682 796.341 728.619 790.424 C 743.043 785.666 759.71 787.649 773.147 794.469 Q 774.355 795.094 775.531 795.777 Q 776.707 796.461 777.848 797.201 Q 778.988 797.942 780.091 798.739 Q 781.194 799.535 782.255 800.385 Q 783.317 801.235 784.336 802.136 Q 785.355 803.037 786.327 803.988 Q 787.3 804.938 788.225 805.936 Q 789.149 806.934 790.024 807.976 Q 790.898 809.018 791.719 810.102 Q 792.541 811.186 793.308 812.309 Q 794.075 813.432 794.785 814.592 Q 795.496 815.752 796.148 816.945 Q 796.8 818.139 797.393 819.363 Q 797.985 820.588 798.516 821.84 Q 799.048 823.092 799.516 824.369 Q 799.985 825.646 800.39 826.944 C 802.429 833.341 804.247 842.921 802.187 849.469 C 792.913 861.326 784.155 868.803 768.745 870.675 C 767.289 870.852 765.995 870.932 764.531 870.783 C 755.13 875.401 749.204 879.192 738.253 876.835 C 731.763 875.438 724.351 871.061 720.555 865.536 C 718.657 862.774 717.311 859.649 715.458 856.842 L 715.216 856.48 C 715.055 856.42 714.892 856.366 714.734 856.301 C 702.453 851.209 695.988 838.961 691.109 827.436 Z" stroke-linecap="round" />
</g>
		<g transform="matrix(1 0 0 1 233.1 339.13)" id="path_6"  >
<path style="stroke: none; stroke-width: 1; stroke-dasharray: none; stroke-linecap: butt; stroke-dashoffset: 0; stroke-linejoin: miter; stroke-miterlimit: 4; fill: rgb(14,28,45); fill-rule: nonzero; opacity: 1;"  transform=" translate(-745.13, -845.4)" d="M 715.216 856.48 C 712.605 847.313 712.147 838.418 716.868 829.785 Q 717.244 829.081 717.656 828.397 Q 718.067 827.714 718.513 827.052 Q 718.959 826.39 719.437 825.751 Q 719.916 825.113 720.427 824.5 Q 720.937 823.886 721.478 823.3 Q 722.019 822.713 722.589 822.155 Q 723.159 821.596 723.757 821.068 Q 724.355 820.539 724.979 820.041 Q 725.603 819.543 726.251 819.078 Q 726.899 818.613 727.57 818.181 Q 728.241 817.749 728.933 817.352 Q 729.626 816.955 730.337 816.593 Q 731.048 816.232 731.777 815.907 Q 732.506 815.582 733.251 815.295 Q 733.995 815.007 734.753 814.758 Q 735.511 814.508 736.281 814.298 C 744.679 811.989 753.675 813.557 761.118 817.936 C 768.535 822.298 773.972 829.062 776.106 837.466 C 778.179 845.631 776.513 854.145 772.219 861.295 Q 770.617 863.91 768.687 866.292 Q 766.757 868.674 764.531 870.783 C 755.13 875.401 749.204 879.192 738.253 876.835 C 731.763 875.438 724.351 871.061 720.555 865.536 C 718.657 862.774 717.311 859.649 715.458 856.842 L 715.216 856.48 Z" stroke-linecap="round" />
</g>
		<g transform="matrix(1 0 0 1 230.72 347.83)" id="path_7"  >
<path style="stroke: none; stroke-width: 1; stroke-dasharray: none; stroke-linecap: butt; stroke-dashoffset: 0; stroke-linejoin: miter; stroke-miterlimit: 4; fill: rgb(132,45,176); fill-rule: nonzero; opacity: 1;"  transform=" translate(-742.76, -854.1)" d="M 719.927 836.289 C 727.806 848.569 738.067 855.275 752.347 858.418 Q 759.58 859.972 766.977 860.104 C 764.5 863.582 761.867 866.614 758.141 868.818 C 752.141 872.366 745.102 872.65 738.501 870.761 C 731.265 868.69 725.14 863.988 721.603 857.289 C 718.073 850.605 717.711 843.434 719.927 836.289 Z" stroke-linecap="round" />
</g>
		<g transform="matrix(1 0 0 1 233.49 333.09)" id="path_8"  >
<path style="stroke: none; stroke-width: 1; stroke-dasharray: none; stroke-linecap: butt; stroke-dashoffset: 0; stroke-linejoin: miter; stroke-miterlimit: 4; fill: rgb(150,201,204); fill-rule: nonzero; opacity: 1;"  transform=" translate(-745.53, -839.36)" d="M 719.927 836.289 C 722.939 829.133 727.667 823.296 735.112 820.38 C 741.782 817.768 749.004 818.1 755.485 821.104 C 762.214 824.223 767.362 829.788 769.761 836.839 C 772.401 844.598 771.013 852.386 767.313 859.477 L 766.977 860.104 Q 759.58 859.973 752.347 858.418 C 738.067 855.275 727.806 848.569 719.927 836.289 Z" stroke-linecap="round" />
</g>
		<g transform="matrix(1 0 0 1 -101.74 329.22)" id="path_9"  >
<linearGradient id="SVGID_gradient_0_1" gradientUnits="userSpaceOnUse" gradientTransform="matrix(1 0 0 1 0 0)"  x1="379.14728" y1="877.52191" x2="440.45175" y2="803.53137">
<stop offset="0%" style="stop-color:rgb(84,100,114);stop-opacity: 1"/>
<stop offset="100%" style="stop-color:rgb(125,143,152);stop-opacity: 1"/>
</linearGradient>
<path style="stroke: none; stroke-width: 1; stroke-dasharray: none; stroke-linecap: butt; stroke-dashoffset: 0; stroke-linejoin: miter; stroke-miterlimit: 4; fill: url(#SVGID_gradient_0_1); fill-rule: nonzero; opacity: 1;"  transform=" translate(-410.29, -835.49)" d="M 389.57 788.727 C 403.748 785.383 419.204 788.33 431.582 795.913 C 445.363 804.355 455.679 817.558 459.372 833.411 C 461.833 843.973 460.382 854.278 456.923 864.442 C 450.163 867.42 443.997 871.506 437.464 874.923 C 425.995 880.923 411.899 884.168 398.954 883.552 C 388.225 883.041 378.12 879.266 370.872 871.106 C 362.924 862.157 359.371 849.535 360.074 837.724 C 361.307 817.041 374.804 801.779 389.57 788.727 Z" stroke-linecap="round" />
</g>
		<g transform="matrix(1 0 0 1 -109.98 338.82)" id="path_10"  >
<path style="stroke: none; stroke-width: 1; stroke-dasharray: none; stroke-linecap: butt; stroke-dashoffset: 0; stroke-linejoin: miter; stroke-miterlimit: 4; fill: rgb(14,28,45); fill-rule: nonzero; opacity: 1;"  transform=" translate(-402.05, -845.09)" d="M 399.712 813.622 C 406.937 813.236 413.653 814.521 419.706 818.768 C 426.762 823.719 431.578 831.826 433.045 840.276 C 434.491 848.607 431.914 856.971 427.074 863.757 C 421.937 870.958 414.804 875.085 406.126 876.489 C 398.061 877.098 390.591 875.815 383.841 871.137 C 377.108 866.471 372.638 859.065 371.204 851.041 C 369.716 842.715 371.28 834.399 376.165 827.444 C 381.934 819.229 390.062 815.36 399.712 813.622 Z" stroke-linecap="round" />
</g>
		<g transform="matrix(1 0 0 1 -110.08 340.53)" id="path_11"  >
<path style="stroke: none; stroke-width: 1; stroke-dasharray: none; stroke-linecap: butt; stroke-dashoffset: 0; stroke-linejoin: miter; stroke-miterlimit: 4; fill: rgb(132,45,176); fill-rule: nonzero; opacity: 1;"  transform=" translate(-401.96, -846.8)" d="M 426.934 850.762 C 424.913 857.556 421.244 863.1 414.935 866.626 C 408.99 869.948 401.588 870.902 395.036 868.977 Q 394.417 868.797 393.809 868.586 Q 393.2 868.375 392.602 868.133 Q 392.005 867.891 391.421 867.619 Q 390.837 867.348 390.267 867.047 Q 389.697 866.746 389.143 866.416 Q 388.59 866.087 388.053 865.73 Q 387.517 865.373 386.999 864.989 Q 386.482 864.605 385.984 864.195 Q 385.487 863.786 385.011 863.352 Q 384.535 862.917 384.081 862.459 Q 383.628 862.002 383.198 861.521 Q 382.769 861.041 382.364 860.54 Q 381.959 860.038 381.58 859.517 Q 381.201 858.996 380.85 858.456 Q 380.498 857.916 380.174 857.359 Q 379.849 856.803 379.554 856.23 C 376.465 850.12 376.224 842.812 378.461 836.383 C 380.29 831.124 383.921 826.145 388.964 823.628 C 388.002 825.182 387.05 826.738 386.023 828.249 C 386.185 835.044 386.723 841.035 391.994 846.017 C 398.01 851.703 407.619 853.167 415.606 852.702 C 419.471 852.477 423.205 851.785 426.934 850.762 Z" stroke-linecap="round" />
</g>
		<g transform="matrix(1 0 0 1 -105.45 329.96)" id="path_12"  >
<path style="stroke: none; stroke-width: 1; stroke-dasharray: none; stroke-linecap: butt; stroke-dashoffset: 0; stroke-linejoin: miter; stroke-miterlimit: 4; fill: rgb(150,201,204); fill-rule: nonzero; opacity: 1;"  transform=" translate(-406.58, -836.23)" d="M 388.964 823.628 C 393.644 820.21 400.17 819.036 405.8 820.023 Q 406.431 820.138 407.055 820.284 Q 407.679 820.431 408.296 820.608 Q 408.912 820.785 409.518 820.993 Q 410.125 821.2 410.72 821.438 Q 411.316 821.676 411.899 821.943 Q 412.482 822.21 413.051 822.506 Q 413.62 822.801 414.173 823.125 Q 414.726 823.449 415.263 823.8 Q 415.8 824.151 416.318 824.528 Q 416.836 824.905 417.335 825.308 Q 417.834 825.711 418.313 826.138 Q 418.791 826.565 419.248 827.015 Q 419.704 827.465 420.137 827.938 Q 420.571 828.41 420.98 828.904 Q 421.389 829.397 421.774 829.911 Q 422.158 830.424 422.516 830.956 C 426.372 836.603 427.517 842.514 427.038 849.247 L 426.934 850.762 C 423.205 851.785 419.471 852.477 415.606 852.702 C 407.619 853.167 398.01 851.703 391.994 846.017 C 386.723 841.035 386.185 835.044 386.023 828.249 C 387.05 826.738 388.002 825.182 388.964 823.628 Z" stroke-linecap="round" />
</g>
		<g transform="matrix(1 0 0 1 110.49 244.06)" id="path_13"  >
<path style="stroke: none; stroke-width: 1; stroke-dasharray: none; stroke-linecap: butt; stroke-dashoffset: 0; stroke-linejoin: miter; stroke-miterlimit: 4; fill: rgb(254,254,254); fill-rule: nonzero; opacity: 1;"  transform=" translate(-622.52, -750.33)" d="M 879.644 734.727 C 887.264 734.603 897.132 733.91 903.275 739.306 C 906.281 741.946 907.65 745.675 907.789 749.612 Q 907.822 750.396 907.775 751.179 Q 907.729 751.962 907.603 752.736 Q 907.476 753.51 907.272 754.268 Q 907.068 755.025 906.788 755.757 Q 906.508 756.49 906.154 757.191 Q 905.801 757.891 905.379 758.552 Q 904.956 759.213 904.468 759.827 Q 903.981 760.441 903.433 761.003 C 900.311 764.145 896.445 764.968 892.179 765.296 C 873.697 766.714 855.049 765.522 836.537 765.519 L 730.095 765.742 L 367.25 766.027 L 337.464 766.018 C 337.223 755.88 336.816 745.282 338.457 735.255 L 703.435 734.974 L 816.303 734.979 C 837.368 734.98 858.597 735.517 879.644 734.727 Z" stroke-linecap="round" />
</g>
		<g transform="matrix(1 0 0 1 58.27 -75.74)" id="path_14"  >
<path style="stroke: none; stroke-width: 1; stroke-dasharray: none; stroke-linecap: butt; stroke-dashoffset: 0; stroke-linejoin: miter; stroke-miterlimit: 4; fill: rgb(132,45,176); fill-rule: nonzero; opacity: 1;"  transform=" translate(-570.31, -430.53)" d="M 259.012 223.501 L 298.921 223.493 L 343.907 474.692 L 357.606 551.192 C 360.354 567.057 362.412 583.39 366.18 599.036 L 394.663 598.646 C 399.975 598.576 405.563 598.89 410.815 598.089 C 411.66 603.895 412.406 611.733 417.48 615.547 C 420.932 618.142 425.826 618.181 429.969 618.406 C 439.807 618.942 449.657 618.173 459.494 618.029 C 474.522 617.808 489.575 617.972 504.605 617.98 L 699.359 618.436 L 771.368 617.978 C 784.713 617.954 798.13 617.67 811.451 618.501 L 815.116 599.089 C 818.893 600.41 873.771 599.623 881.606 599.297 C 878.284 610.056 877.894 620.288 869.375 628.636 C 863.947 633.956 857.465 636.151 850.058 636.847 C 841.685 637.633 833.115 637.29 824.711 637.235 L 788.335 637.033 L 676.497 637.232 L 464.341 637.279 Q 396.782 637.727 329.228 636.789 Q 306.046 506.061 284.668 375.025 L 268.762 280.97 C 265.47 261.833 261.818 242.715 259.012 223.501 Z" stroke-linecap="round" />
</g>
		<g transform="matrix(1 0 0 1 120.01 -94.82)" id="path_15"  >
<path style="stroke: none; stroke-width: 1; stroke-dasharray: none; stroke-linecap: butt; stroke-dashoffset: 0; stroke-linejoin: miter; stroke-miterlimit: 4; fill: rgb(150,201,204); fill-rule: nonzero; opacity: 1;"  transform=" translate(-632.04, -411.45)" d="M 298.921 223.493 Q 374.182 222.942 449.444 223.489 L 720.16 223.5 L 865.88 223.501 L 906.241 223.469 C 915.292 223.377 924.522 222.735 933.539 223.578 C 941.715 224.342 948.899 227.353 954.779 233.156 C 961.79 240.073 965.217 249.587 965.167 259.351 C 965.088 274.763 955.182 304.562 951.019 320.717 L 922.066 433.739 L 893.141 551.294 C 889.245 567.276 885.954 583.433 881.606 599.297 C 873.771 599.623 818.893 600.41 815.116 599.089 C 818.869 583.159 821.501 566.882 824.563 550.804 L 840.56 467.061 L 865.068 339.336 C 868.277 322.639 872.018 305.957 874.964 289.225 C 875.44 286.522 876.528 280.993 875.602 278.393 C 875.079 276.923 873.717 275.254 872.326 274.547 C 869.163 272.94 865.374 272.412 861.862 272.199 C 848.794 271.405 835.5 272.481 822.404 272.539 L 742.549 272.555 L 458.796 272.554 C 449.622 272.551 440.432 272.654 431.26 272.518 C 418.876 272.335 366.741 270.51 358.908 273.215 C 355.269 274.472 354.122 276.828 352.514 280.046 C 353.938 293.477 357.032 306.651 359.417 319.93 L 373.12 395.356 L 410.815 598.089 C 405.563 598.89 399.975 598.576 394.663 598.646 L 366.18 599.036 C 362.412 583.39 360.354 567.057 357.606 551.192 L 343.907 474.692 L 298.921 223.493 Z" stroke-linecap="round" />
</g>
		<g transform="matrix(1 0 0 1 102.2 -61.1)" id="path_16"  >
<path style="stroke: none; stroke-width: 1; stroke-dasharray: none; stroke-linecap: butt; stroke-dashoffset: 0; stroke-linejoin: miter; stroke-miterlimit: 4; fill: rgb(14,28,45); fill-rule: nonzero; opacity: 1;"  transform=" translate(-614.24, -445.17)" d="M 352.514 280.046 C 354.122 276.828 355.269 274.472 358.908 273.215 C 366.741 270.51 418.876 272.335 431.26 272.518 C 440.432 272.654 449.622 272.551 458.796 272.554 L 742.549 272.555 L 822.404 272.539 C 835.5 272.481 848.794 271.405 861.862 272.199 C 865.374 272.412 869.163 272.94 872.326 274.547 C 873.717 275.254 875.079 276.923 875.602 278.393 C 876.528 280.993 875.44 286.522 874.964 289.225 C 872.018 305.957 868.277 322.639 865.068 339.336 L 840.56 467.061 L 824.563 550.804 C 821.501 566.882 818.869 583.159 815.116 599.089 L 811.451 618.501 C 798.13 617.67 784.713 617.954 771.368 617.978 L 699.359 618.436 L 504.605 617.98 C 489.575 617.972 474.522 617.808 459.494 618.029 C 449.657 618.173 439.807 618.942 429.969 618.406 C 425.826 618.181 420.932 618.142 417.48 615.547 C 412.406 611.733 411.66 603.895 410.815 598.089 L 373.12 395.356 L 359.417 319.93 C 357.032 306.651 353.938 293.477 352.514 280.046 Z" stroke-linecap="round" />
</g>
		<g transform="matrix(1 0 0 1 -31.79 -47.22)" id="path_17"  >
<path style="stroke: none; stroke-width: 1; stroke-dasharray: none; stroke-linecap: butt; stroke-dashoffset: 0; stroke-linejoin: miter; stroke-miterlimit: 4; fill: rgb(250,190,74); fill-rule: nonzero; opacity: 1;"  transform=" translate(-480.25, -459.05)" d="M 464.24 442 L 491.806 441.996 Q 494.334 458.516 496.254 475.118 L 495.868 475.912 L 494.769 476.097 C 488.822 474.114 467.846 448.568 464.24 442 Z" stroke-linecap="round" />
</g>
		<g transform="matrix(1 0 0 1 248.79 75.8)" id="path_18"  >
<path style="stroke: none; stroke-width: 1; stroke-dasharray: none; stroke-linecap: butt; stroke-dashoffset: 0; stroke-linejoin: miter; stroke-miterlimit: 4; fill: rgb(170,39,237); fill-rule: nonzero; opacity: 1;"  transform=" translate(-760.82, -582.07)" d="M 723.293 567.878 C 733.986 570.76 766.063 569.323 778.368 567.84 C 785.815 566.942 794.833 564.17 802.279 565.415 C 799.69 576.498 797.232 587.832 795.28 599.04 L 719.362 598.991 C 720.853 588.646 721.934 578.243 723.293 567.878 Z" stroke-linecap="round" />
</g>
		<g transform="matrix(1 0 0 1 151.97 68.42)" id="path_19"  >
<path style="stroke: none; stroke-width: 1; stroke-dasharray: none; stroke-linecap: butt; stroke-dashoffset: 0; stroke-linejoin: miter; stroke-miterlimit: 4; fill: rgb(170,39,237); fill-rule: nonzero; opacity: 1;"  transform=" translate(-664, -574.69)" d="M 624.497 550.097 C 637.28 553.395 649.798 557.456 662.695 560.39 C 676.169 563.455 689.923 565.319 703.522 567.716 C 702.423 578.135 701.148 588.706 699.379 599.031 L 624.487 599.291 L 624.497 550.097 Z" stroke-linecap="round" />
</g>
		<g transform="matrix(1 0 0 1 -98.21 -148.68)" id="path_20"  >
<path style="stroke: none; stroke-width: 1; stroke-dasharray: none; stroke-linecap: butt; stroke-dashoffset: 0; stroke-linejoin: miter; stroke-miterlimit: 4; fill: rgb(170,39,237); fill-rule: nonzero; opacity: 1;"  transform=" translate(-413.82, -357.59)" d="M 374.786 292.255 C 388.922 291.671 403.187 291.882 417.332 292.072 C 416.338 293.061 415.216 293.707 415.15 295.205 C 414.952 299.666 417.087 305.737 417.814 310.302 C 419.003 317.768 419.97 325.341 421.491 332.745 Q 423.655 342.921 426.363 352.966 Q 429.071 363.011 432.317 372.896 Q 435.562 382.781 439.334 392.477 Q 443.106 402.172 447.395 411.651 C 448.696 414.557 450.543 420.615 452.861 422.701 C 447.091 423.776 439.984 423.067 434.055 423.077 L 398.239 423.239 L 382.786 337.605 C 380.037 322.502 376.67 307.5 374.786 292.255 Z" stroke-linecap="round" />
</g>
		<g transform="matrix(1 0 0 1 49.47 41.21)" id="path_21"  >
<path style="stroke: none; stroke-width: 1; stroke-dasharray: none; stroke-linecap: butt; stroke-dashoffset: 0; stroke-linejoin: miter; stroke-miterlimit: 4; fill: rgb(170,39,237); fill-rule: nonzero; opacity: 1;"  transform=" translate(-561.51, -547.48)" d="M 517.757 495.929 C 525.797 499.682 532.541 506.631 540.051 511.385 C 554.985 520.838 571.136 528.401 587.215 535.667 C 593.073 538.314 598.949 541.318 605.014 543.429 L 605.255 599.012 L 529.007 599.022 C 525.533 564.61 521.926 530.274 517.757 495.929 Z" stroke-linecap="round" />
</g>
		<g transform="matrix(1 0 0 1 -59.92 -148.84)" id="path_22"  >
<path style="stroke: none; stroke-width: 1; stroke-dasharray: none; stroke-linecap: butt; stroke-dashoffset: 0; stroke-linejoin: miter; stroke-miterlimit: 4; fill: rgb(250,190,74); fill-rule: nonzero; opacity: 1;"  transform=" translate(-452.12, -357.43)" d="M 417.332 292.072 Q 444.352 291.929 471.371 292.258 C 473.87 315.654 477.601 339.038 480.672 362.376 C 483.277 382.165 485.213 403.183 489.096 422.722 C 476.988 423.235 464.906 422.233 452.861 422.701 C 450.543 420.615 448.696 414.557 447.395 411.651 Q 443.106 402.172 439.334 392.477 Q 435.562 382.781 432.317 372.896 Q 429.071 363.011 426.363 352.966 Q 423.655 342.921 421.491 332.745 C 419.97 325.341 419.003 317.768 417.814 310.302 C 417.087 305.737 414.952 299.666 415.15 295.205 C 415.216 293.707 416.338 293.061 417.332 292.072 Z" stroke-linecap="round" />
</g>
		<g transform="matrix(1 0 0 1 46.46 -13.69)" id="path_23"  >
<path style="stroke: none; stroke-width: 1; stroke-dasharray: none; stroke-linecap: butt; stroke-dashoffset: 0; stroke-linejoin: miter; stroke-miterlimit: 4; fill: rgb(250,190,74); fill-rule: nonzero; opacity: 1;"  transform=" translate(-558.49, -492.58)" d="M 511.364 442.492 Q 558.442 441.528 605.524 442.234 Q 605.694 492.834 605.014 543.429 C 598.949 541.318 593.073 538.314 587.215 535.667 C 571.136 528.401 554.985 520.838 540.051 511.385 C 532.541 506.631 525.797 499.682 517.757 495.929 Q 515.289 479.015 513.463 462.02 C 512.699 455.512 511.694 449.043 511.364 442.492 Z" stroke-linecap="round" />
</g>
		<g transform="matrix(1 0 0 1 159.75 -1.57)" id="path_24"  >
<path style="stroke: none; stroke-width: 1; stroke-dasharray: none; stroke-linecap: butt; stroke-dashoffset: 0; stroke-linejoin: miter; stroke-miterlimit: 4; fill: rgb(250,190,74); fill-rule: nonzero; opacity: 1;"  transform=" translate(-671.79, -504.7)" d="M 624.484 442.242 C 655.925 442.019 687.683 441.095 719.096 442.278 C 713.04 483.961 708.671 525.919 703.522 567.716 C 689.923 565.319 676.169 563.455 662.695 560.39 C 649.798 557.456 637.28 553.395 624.497 550.097 L 624.484 442.242 Z" stroke-linecap="round" />
</g>
		<g transform="matrix(1 0 0 1 262.27 -0.5)" id="path_25"  >
<path style="stroke: none; stroke-width: 1; stroke-dasharray: none; stroke-linecap: butt; stroke-dashoffset: 0; stroke-linejoin: miter; stroke-miterlimit: 4; fill: rgb(250,190,74); fill-rule: nonzero; opacity: 1;"  transform=" translate(-774.3, -505.77)" d="M 738.626 441.996 L 825.311 442.005 C 821.716 459.123 818.965 476.451 815.722 493.645 C 811.216 517.545 806.327 541.437 802.279 565.415 C 794.833 564.17 785.815 566.942 778.368 567.84 C 766.063 569.323 733.986 570.76 723.293 567.878 C 726.122 543.221 728.751 518.49 731.975 493.883 C 734.237 476.616 737.265 459.364 738.626 441.996 Z" stroke-linecap="round" />
</g>
		<g transform="matrix(1 0 0 1 286.04 -148.64)" id="path_26"  >
<path style="stroke: none; stroke-width: 1; stroke-dasharray: none; stroke-linecap: butt; stroke-dashoffset: 0; stroke-linejoin: miter; stroke-miterlimit: 4; fill: rgb(250,190,74); fill-rule: nonzero; opacity: 1;"  transform=" translate(-798.08, -357.63)" d="M 846.527 291.755 L 854.855 291.747 C 850.77 309.4 847.805 327.499 844.345 345.298 C 839.289 371.308 833.944 397.299 829.27 423.379 C 802.845 422.705 776.196 423.425 749.75 423.494 L 741.302 423.511 C 742.045 407.26 744.861 391.168 746.896 375.045 L 757.188 291.999 L 846.527 291.755 Z" stroke-linecap="round" />
</g>
		<g transform="matrix(1 0 0 1 -55.65 14.49)" id="path_27"  >
<path style="stroke: none; stroke-width: 1; stroke-dasharray: none; stroke-linecap: butt; stroke-dashoffset: 0; stroke-linejoin: miter; stroke-miterlimit: 4; fill: rgb(170,39,237); fill-rule: nonzero; opacity: 1;"  transform=" translate(-456.39, -520.75)" d="M 402.2 442.002 L 464.24 442 C 467.846 448.568 488.822 474.114 494.769 476.097 L 495.868 475.912 L 496.254 475.118 C 498.184 480.489 498.541 494.873 499.339 501.467 C 503.272 533.958 506.444 566.522 510.574 598.997 L 430.187 599.51 C 426.321 582.208 423.87 564.253 420.769 546.77 L 402.2 442.002 Z" stroke-linecap="round" />
</g>
		<g transform="matrix(1 0 0 1 168.96 -148.89)" id="path_28"  >
<path style="stroke: none; stroke-width: 1; stroke-dasharray: none; stroke-linecap: butt; stroke-dashoffset: 0; stroke-linejoin: miter; stroke-miterlimit: 4; fill: rgb(250,190,74); fill-rule: nonzero; opacity: 1;"  transform=" translate(-680.99, -357.38)" d="M 677.566 291.744 L 737.61 292.263 C 734.794 308.181 733.6 324.454 731.716 340.505 L 721.817 423.024 L 685.25 422.859 C 665.011 422.585 644.734 422.914 624.492 423.004 C 624.483 379.344 624.126 335.653 624.685 291.997 L 677.566 291.744 Z" stroke-linecap="round" />
</g>
		<g transform="matrix(1 0 0 1 36.14 -148.76)" id="path_29"  >
<path style="stroke: none; stroke-width: 1; stroke-dasharray: none; stroke-linecap: butt; stroke-dashoffset: 0; stroke-linejoin: miter; stroke-miterlimit: 4; fill: rgb(250,190,74); fill-rule: nonzero; opacity: 1;"  transform=" translate(-548.18, -357.51)" d="M 490.835 291.999 L 605.522 292 L 605.509 423.014 L 508.668 423.011 C 504.53 395.902 500.931 368.752 497.303 341.566 C 495.102 325.069 492.574 308.549 490.835 291.999 Z" stroke-linecap="round" />
</g>
</g>
</g>
</svg>